<svg width="10" height="10" viewBox="0 0 10 10" fill="none" xmlns="http://www.w3.org/2000/svg">
<g clip-path="url(#clip0_1_467)">
<path d="M7.08332 8.74998V7.91664C7.08332 7.47462 6.90773 7.05069 6.59517 6.73813C6.28261 6.42557 5.85869 6.24998 5.41666 6.24998H2.08332C1.6413 6.24998 1.21737 6.42557 0.904812 6.73813C0.592251 7.05069 0.416656 7.47462 0.416656 7.91664V8.74998" stroke="black" stroke-width="0.616147" stroke-linecap="round" stroke-linejoin="round"/>
<path d="M3.75007 4.58333C4.67055 4.58333 5.41674 3.83713 5.41674 2.91666C5.41674 1.99618 4.67055 1.24999 3.75007 1.24999C2.8296 1.24999 2.0834 1.99618 2.0834 2.91666C2.0834 3.83713 2.8296 4.58333 3.75007 4.58333Z" stroke="black" stroke-width="0.616147" stroke-linecap="round" stroke-linejoin="round"/>
<path d="M9.58337 8.75002V7.91668C9.5831 7.5474 9.46019 7.18867 9.23394 6.89682C9.0077 6.60496 8.69093 6.3965 8.33337 6.30418" stroke="black" stroke-width="0.616147" stroke-linecap="round" stroke-linejoin="round"/>
<path d="M6.66663 1.3042C7.02513 1.39599 7.34289 1.60449 7.56981 1.89683C7.79673 2.18917 7.91989 2.54871 7.91989 2.91878C7.91989 3.28885 7.79673 3.6484 7.56981 3.94074C7.34289 4.23307 7.02513 4.44157 6.66663 4.53337" stroke="black" stroke-width="0.616147" stroke-linecap="round" stroke-linejoin="round"/>
</g>
<defs>
<clipPath id="clip0_1_467">
<rect width="10" height="10" fill="white"/>
</clipPath>
</defs>
</svg>
